#!OML:ASF C:\Vicon Data\Big\jianyuan-11\jianyuan\Session 1\male.ASF
:FULLY-SPECIFIED
:DEGREES
126
root -11.192535 16.187584 -13.665365 -7.725607 -37.508471 7.460861
lowerback -0.124060 6.201919 2.020509 
upperback 4.900792 8.370235 -0.259070 
thorax 5.476692 4.304396 -0.947156 
lowerneck -11.361971 -9.353851 -11.860940 
upperneck 23.657148 -12.747447 11.188695 
head 11.031954 -5.447737 4.313670 
rclavicle 0.000000 0.000000 
rhumerus -34.160120 -18.198404 -83.461647 
rradius 47.048183 
rwrist -7.379931 
rhand -16.589623 0.090708 
rfingers 0.000000 
rthumb 9.631275 -29.669103 
lclavicle 0.000000 0.000000 
lhumerus -86.198507 53.710347 8.906435 
lradius 18.124609 
lwrist -66.010123 
lhand -12.699401 -8.700687 
lfingers 0.000000 
lthumb 13.382962 20.849478 
rfemur 19.268621 6.091787 31.236300 
rtibia 25.010641 
rfoot 7.489493 -0.319026 
rtoes 22.220298 
lfemur -23.431668 0.091212 -22.786422 
ltibia 21.984624 
lfoot -7.875640 -0.826147 
ltoes -18.280496 
127
root -11.214316 16.183957 -13.630320 -7.816239 -37.350088 7.463698
lowerback -0.108187 6.135919 1.972396 
upperback 4.916240 8.285031 -0.263394 
thorax 5.473843 4.260816 -0.931971 
lowerneck -11.356607 -9.351731 -11.863105 
upperneck 23.668378 -12.755642 11.232496 
head 11.039796 -5.446087 4.329573 
rclavicle 0.000000 0.000000 
rhumerus -34.226012 -18.270173 -83.411380 
rradius 46.922443 
rwrist -7.274210 
rhand -16.574699 0.131580 
rfingers 0.000000 
rthumb 9.645681 -29.627558 
lclavicle 0.000000 0.000000 
lhumerus -86.337326 53.704504 8.700912 
lradius 18.120184 
lwrist -66.159096 
lhand -12.746872 -8.727727 
lfingers 0.000000 
lthumb 13.337192 20.825449 
rfemur 19.391755 5.861691 31.196600 
rtibia 25.154815 
rfoot 7.683647 -0.397270 
rtoes 22.041946 
lfemur -23.302756 -0.176591 -22.822905 
ltibia 22.178110 
lfoot -7.637025 -0.866027 
ltoes -17.723754 
128
root -11.235707 16.182810 -13.597611 -7.869771 -37.391064 7.466631
lowerback -0.122781 6.136010 1.933251 
upperback 4.937620 8.286498 -0.252040 
thorax 5.497267 4.259997 -0.896105 
lowerneck -11.430742 -9.350652 -11.841890 
upperneck 23.733879 -12.746400 11.190470 
head 11.072816 -5.440364 4.310709 
rclavicle 0.000000 0.000000 
rhumerus -34.275627 -18.360667 -83.349454 
rradius 46.773025 
rwrist -6.966757 
rhand -16.641718 0.204139 
rfingers 0.000000 
rthumb 9.581023 -29.557976 
lclavicle 0.000000 0.000000 
lhumerus -86.542295 53.742752 8.437411 
lradius 18.098395 
lwrist -66.346931 
lhand -12.756181 -8.809273 
lfingers 0.000000 
lthumb 13.328186 20.744501 
rfemur 19.446294 5.729256 31.120137 
rtibia 25.316780 
rfoot 7.988540 -0.350891 
rtoes 21.623981 
lfemur -23.214758 -0.338979 -22.799801 
ltibia 22.361290 
lfoot -7.316849 -0.786683 
ltoes -16.710176 
129
root -11.257098 16.181663 -13.564901 -7.923302 -37.432039 7.469564
lowerback -0.137375 6.136101 1.894105 
upperback 4.959001 8.287965 -0.240686 
thorax 5.520692 4.259177 -0.860238 
lowerneck -11.504878 -9.349573 -11.820675 
upperneck 23.799379 -12.737159 11.148444 
head 11.105837 -5.434640 4.291844 
rclavicle 0.000000 0.000000 
rhumerus -34.325241 -18.451160 -83.287528 
rradius 46.623608 
rwrist -6.659304 
rhand -16.708737 0.276698 
rfingers 0.000000 
rthumb 9.516366 -29.488394 
lclavicle 0.000000 0.000000 
lhumerus -86.747264 53.781000 8.173910 
lradius 18.076606 
lwrist -66.534765 
lhand -12.765490 -8.890818 
lfingers 0.000000 
lthumb 13.319181 20.663552 
rfemur 19.500833 5.596820 31.043674 
rtibia 25.478745 
rfoot 8.293433 -0.304512 
rtoes 21.206017 
lfemur -23.126760 -0.501368 -22.776697 
ltibia 22.544470 
lfoot -6.996674 -0.707338 
ltoes -15.696598 
130
root -11.278536 16.181052 -13.532515 -7.960656 -37.490744 7.469849
lowerback -0.155426 6.139963 1.860763 
upperback 4.967389 8.293721 -0.233360 
thorax 5.533990 4.260448 -0.831878 
lowerneck -11.560115 -9.345653 -11.786754 
upperneck 23.850984 -12.727274 11.106771 
head 11.128871 -5.428397 4.271563 
rclavicle 0.000000 0.000000 
rhumerus -34.384122 -18.530565 -83.235471 
rradius 46.490139 
rwrist -6.414802 
rhand -16.766612 0.331339 
rfingers 0.000000 
rthumb 9.460533 -29.436317 
lclavicle 0.000000 0.000000 
lhumerus -86.905639 53.805265 7.964342 
lradius 18.057502 
lwrist -66.673095 
lhand -12.766380 -8.955482 
lfingers 0.000000 
lthumb 13.318309 20.598951 
rfemur 19.535975 5.483277 30.969577 
rtibia 25.650774 
rfoot 8.592834 -0.258998 
rtoes 20.858009 
lfemur -23.058322 -0.659891 -22.743281 
ltibia 22.717926 
lfoot -6.660425 -0.577394 
ltoes -14.682112 
131
root -11.300120 16.182072 -13.501116 -7.948698 -37.603490 7.462064
lowerback -0.184013 6.155318 1.845108 
upperback 4.936171 8.312547 -0.238317 
thorax 5.516420 4.268091 -0.826399 
lowerneck -11.557746 -9.333074 -11.714107 
upperneck 23.860229 -12.715429 11.066170 
head 11.121468 -5.420573 4.246962 
rclavicle 0.000000 0.000000 
rhumerus -34.471246 -18.576167 -83.213492 
rradius 46.405285 
rwrist -6.362186 
rhand -16.796619 0.331362 
rfingers 0.000000 
rthumb 9.431599 -29.437600 
lclavicle 0.000000 0.000000 
lhumerus -86.921992 53.786906 7.919171 
lradius 18.046578 
lwrist -66.660527 
lhand -12.741605 -8.968689 
lfingers 0.000000 
lthumb 13.342228 20.584178 
rfemur 19.511990 5.427317 30.902687 
rtibia 25.853482 
rfoot 8.875493 -0.216119 
rtoes 20.723244 
lfemur -23.049504 -0.806632 -22.678431 
ltibia 22.861739 
lfoot -6.275182 -0.293212 
ltoes -13.664856 
132
root -11.321704 16.183092 -13.469718 -7.936741 -37.716236 7.454278
lowerback -0.212600 6.170674 1.829454 
upperback 4.904954 8.331373 -0.243274 
thorax 5.498851 4.275734 -0.820919 
lowerneck -11.555377 -9.320496 -11.641460 
upperneck 23.869475 -12.703585 11.025569 
head 11.114066 -5.412749 4.222362 
rclavicle 0.000000 0.000000 
rhumerus -34.558369 -18.621768 -83.191514 
rradius 46.320432 
rwrist -6.309569 
rhand -16.826625 0.331385 
rfingers 0.000000 
rthumb 9.402665 -29.438883 
lclavicle 0.000000 0.000000 
lhumerus -86.938344 53.768546 7.874000 
lradius 18.035655 
lwrist -66.647958 
lhand -12.716830 -8.981896 
lfingers 0.000000 
lthumb 13.366148 20.569405 
rfemur 19.488004 5.371358 30.835798 
rtibia 26.056189 
rfoot 9.158152 -0.173240 
rtoes 20.588478 
lfemur -23.040686 -0.953373 -22.613582 
ltibia 23.005553 
lfoot -5.889939 -0.009031 
ltoes -12.647600 
133
root -11.343260 16.184038 -13.438269 -7.920426 -37.820542 7.448738
lowerback -0.248117 6.188508 1.814272 
upperback 4.872125 8.353659 -0.254847 
thorax 5.484752 4.285230 -0.821455 
lowerneck -11.528442 -9.313750 -11.581209 
upperneck 23.861805 -12.705640 11.015450 
head 11.100703 -5.410072 4.209416 
rclavicle 0.000000 0.000000 
rhumerus -34.648972 -18.680081 -83.170026 
rradius 46.240889 
rwrist -6.285101 
rhand -16.844438 0.334348 
rfingers 0.000000 
rthumb 9.385492 -29.436698 
lclavicle 0.000000 0.000000 
lhumerus -86.915251 53.748951 7.862122 
lradius 18.029863 
lwrist -66.622756 
lhand -12.714519 -8.966814 
lfingers 0.000000 
lthumb 13.368404 20.584328 
rfemur 19.447006 5.305617 30.761684 
rtibia 26.275099 
rfoot 9.438859 -0.123174 
rtoes 20.475171 
lfemur -23.040022 -1.115601 -22.549861 
ltibia 23.145471 
lfoot -5.525351 0.282521 
ltoes -11.547350 
134
root -11.364707 16.184704 -13.406627 -7.887490 -37.892646 7.451770
lowerback -0.310076 6.215801 1.800897 
upperback 4.833145 8.389142 -0.291665 
thorax 5.483896 4.301792 -0.844945 
lowerneck -11.407778 -9.329253 -11.568254 
upperneck 23.789600 -12.760726 11.121625 
head 11.064600 -5.427031 4.240939 
rclavicle 0.000000 0.000000 
rhumerus -34.752850 -18.786890 -83.150410 
rradius 46.181606 
rwrist -6.368027 
rhand -16.815729 0.348523 
rfingers 0.000000 
rthumb 9.413192 -29.421278 
lclavicle 0.000000 0.000000 
lhumerus -86.741667 53.724638 7.977263 
lradius 18.043652 
lwrist -66.549352 
lhand -12.797914 -8.843803 
lfingers 0.000000 
lthumb 13.288006 20.712552 
rfemur 19.341096 5.202555 30.660005 
rtibia 26.555825 
rfoot 9.712121 -0.045687 
rtoes 20.443731 
lfemur -23.070462 -1.336918 -22.490445 
ltibia 23.270531 
lfoot -5.239566 0.602196 
ltoes -10.130452 
135
root -11.386155 16.185371 -13.374985 -7.854553 -37.964749 7.454801
lowerback -0.372034 6.243095 1.787522 
upperback 4.794165 8.424625 -0.328483 
thorax 5.483040 4.318354 -0.868435 
lowerneck -11.287115 -9.344756 -11.555298 
upperneck 23.717396 -12.815812 11.227801 
head 11.028498 -5.443989 4.272462 
rclavicle 0.000000 0.000000 
rhumerus -34.856728 -18.893698 -83.130793 
rradius 46.122324 
rwrist -6.450952 
rhand -16.787021 0.362697 
rfingers 0.000000 
rthumb 9.440892 -29.405857 
lclavicle 0.000000 0.000000 
lhumerus -86.568082 53.700326 8.092404 
lradius 18.057440 
lwrist -66.475949 
lhand -12.881309 -8.720792 
lfingers 0.000000 
lthumb 13.207608 20.840775 
rfemur 19.235187 5.099494 30.558325 
rtibia 26.836551 
rfoot 9.985384 0.031800 
rtoes 20.412291 
lfemur -23.100903 -1.558235 -22.431030 
ltibia 23.395590 
lfoot -4.953781 0.921870 
ltoes -8.713553 
136
root -11.407679 16.185907 -13.343181 -7.842059 -38.034322 7.482927
lowerback -0.433317 6.259380 1.743496 
upperback 4.762226 8.446281 -0.356598 
thorax 5.482812 4.326649 -0.867205 
lowerneck -11.202932 -9.351016 -11.556492 
upperneck 23.672623 -12.847513 11.307799 
head 11.005717 -5.452882 4.299565 
rclavicle 0.000000 0.000000 
rhumerus -34.944397 -18.969218 -83.101786 
rradius 46.048793 
rwrist -6.513852 
rhand -16.755905 0.369013 
rfingers 0.000000 
rthumb 9.470907 -29.398182 
lclavicle 0.000000 0.000000 
lhumerus -86.410610 53.672720 8.225947 
lradius 18.067399 
lwrist -66.374821 
lhand -12.959107 -8.622237 
lfingers 0.000000 
lthumb 13.132606 20.944186 
rfemur 19.126601 4.989527 30.431596 
rtibia 27.133461 
rfoot 10.267052 0.122442 
rtoes 20.323385 
lfemur -23.121866 -1.788763 -22.392051 
ltibia 23.515063 
lfoot -4.699094 1.234104 
ltoes -7.308062 
137
root -11.429496 16.185943 -13.310752 -7.908798 -38.094082 7.608313
lowerback -0.491982 6.233004 1.580678 
upperback 4.757573 8.414351 -0.350985 
thorax 5.485018 4.302899 -0.770171 
lowerneck -11.260131 -9.321447 -11.612526 
upperneck 23.734172 -12.788581 11.286340 
head 11.034564 -5.430515 4.309534 
rclavicle 0.000000 0.000000 
rhumerus -34.969250 -18.923472 -83.036385 
rradius 45.920040 
rwrist -6.499139 
rhand -16.715462 0.344867 
rfingers 0.000000 
rthumb 9.509897 -29.420525 
lclavicle 0.000000 0.000000 
lhumerus -86.315583 53.632348 8.430809 
lradius 18.062521 
lwrist -66.166243 
lhand -13.015211 -8.618469 
lfingers 0.000000 
lthumb 13.078518 20.951434 
rfemur 19.007641 4.852799 30.207781 
rtibia 27.493099 
rfoot 10.581297 0.264066 
rtoes 20.011756 
lfemur -23.106099 -2.054989 -22.432282 
ltibia 23.612882 
lfoot -4.564932 1.517497 
ltoes -5.946781 
138
root -11.451314 16.185978 -13.278323 -7.975537 -38.153843 7.733699
lowerback -0.550647 6.206628 1.417860 
upperback 4.752921 8.382421 -0.345371 
thorax 5.487224 4.279150 -0.673137 
lowerneck -11.317331 -9.291878 -11.668559 
upperneck 23.795720 -12.729649 11.264881 
head 11.063411 -5.408148 4.319503 
rclavicle 0.000000 0.000000 
rhumerus -34.994102 -18.877726 -82.970983 
rradius 45.791288 
rwrist -6.484425 
rhand -16.675019 0.320722 
rfingers 0.000000 
rthumb 9.548887 -29.442868 
lclavicle 0.000000 0.000000 
lhumerus -86.220557 53.591975 8.635672 
lradius 18.057642 
lwrist -65.957665 
lhand -13.071315 -8.614700 
lfingers 0.000000 
lthumb 13.024429 20.958681 
rfemur 18.888681 4.716071 29.983967 
rtibia 27.852737 
rfoot 10.895542 0.405691 
rtoes 19.700126 
lfemur -23.090332 -2.321216 -22.472513 
ltibia 23.710702 
lfoot -4.430771 1.800891 
ltoes -4.585500 
